<?xml version="1.0" encoding="utf-8"?>
<!-- Generator: Adobe Illustrator 18.1.1, SVG Export Plug-In . SVG Version: 6.00 Build 0)  -->
<svg version="1.0"  xmlns="http://www.w3.org/2000/svg" xmlns:xlink="http://www.w3.org/1999/xlink" x="0px" y="0px"
	 viewBox="0 0 48 48" enable-background="new 0 0 48 48" xml:space="preserve">
<path fill="#0084b2" d="M41,42H13c-2.2,0-4-1.8-4-4V18c0-2.2,1.8-4,4-4h28c2.2,0,4,1.8,4,4v20C45,40.2,43.2,42,41,42z"/>
<path fill="#00b4db" d="M35,36H7c-2.2,0-4-1.8-4-4V12c0-2.2,1.8-4,4-4h28c2.2,0,4,1.8,4,4v20C39,34.2,37.2,36,35,36z"/>
<circle fill="#FFF9C4" cx="30" cy="16" r="3"/>
<polygon fill="#0084b2" points="17,17.9 8,31 26,31 "/>
<polygon fill="#007097" points="28,23.5 22,31 34,31 "/>
</svg>
